<svg width="31" height="31" viewBox="0 0 31 31" fill="none" xmlns="http://www.w3.org/2000/svg">
<path d="M10.79 2.21512C10.411 1.99312 8.15298 0.69612 7.55398 0.34712C7.15983 0.118225 6.71177 -0.00142219 6.25598 0.00051135C5.80019 0.00244489 5.35317 0.125889 4.96098 0.35812C4.37098 0.70812 2.13598 1.99112 1.75798 2.20812C1.36781 2.43268 1.04376 2.75615 0.818505 3.14591C0.59325 3.53568 0.474757 3.97795 0.474976 4.42812V8.15812C0.4755 8.60239 0.591677 9.03887 0.812078 9.42461C1.03248 9.81036 1.34951 10.1321 1.73198 10.3581C2.11398 10.5841 4.38098 11.8851 4.97998 12.2341C5.37129 12.4616 5.81585 12.5814 6.26848 12.5814C6.7211 12.5814 7.16566 12.4616 7.55698 12.2341C8.15698 11.8851 10.396 10.5931 10.771 10.3781C11.1626 10.154 11.4881 9.83036 11.7145 9.43999C11.9408 9.04962 12.06 8.60637 12.06 8.15512V4.42612C12.06 3.97872 11.9428 3.53913 11.72 3.15118C11.4971 2.76323 11.1765 2.44048 10.79 2.21512ZM9.19498 7.23412C9.19509 7.46208 9.13493 7.68601 9.02061 7.88323C8.90628 8.08045 8.74185 8.24393 8.54398 8.35712C8.35398 8.46512 7.22298 9.11812 6.91998 9.29512C6.72235 9.40922 6.49817 9.46929 6.26998 9.46929C6.04178 9.46929 5.8176 9.40922 5.61998 9.29512C5.31998 9.11812 4.17198 8.46212 3.97898 8.34712C3.7854 8.23268 3.62502 8.06974 3.51366 7.87438C3.4023 7.67902 3.34381 7.45799 3.34398 7.23312V5.34912C3.34391 5.1218 3.40378 4.89847 3.51755 4.70166C3.63131 4.50486 3.79496 4.34152 3.99198 4.22812C4.18198 4.11812 5.31198 3.47012 5.60998 3.29312C5.80837 3.17606 6.03431 3.11381 6.26466 3.11276C6.49502 3.1117 6.72152 3.17188 6.92098 3.28712C7.22098 3.46412 8.36398 4.11812 8.55598 4.23112C8.75111 4.34506 8.91297 4.50815 9.02544 4.70414C9.13791 4.90012 9.19705 5.12216 9.19698 5.34812C9.19698 5.72012 9.19698 6.86112 9.19698 7.23412H9.19498Z" fill="#FF8000"/>
<path d="M12.585 17.4221V30.0071H0V17.4221H12.585ZM2.8 20.2191V27.2101H9.788V20.2191H2.8Z" fill="#FFD501"/>
<path d="M23.745 17.4221C24.9894 17.4223 26.2057 17.7915 27.2403 18.4829C28.2749 19.1744 29.0812 20.1571 29.5573 21.3067C30.0334 22.4564 30.1579 23.7214 29.9151 24.9419C29.6723 26.1623 29.073 27.2833 28.1931 28.1632C27.3133 29.0431 26.1922 29.6424 24.9718 29.8852C23.7513 30.128 22.4863 30.0035 21.3366 29.5274C20.187 29.0513 19.2043 28.245 18.5128 27.2104C17.8214 26.1758 17.4522 24.9595 17.452 23.7151C17.4519 22.8887 17.6146 22.0703 17.9308 21.3067C18.247 20.5432 18.7105 19.8494 19.2949 19.265C19.8793 18.6806 20.5731 18.2171 21.3366 17.9009C22.1002 17.5847 22.9186 17.422 23.745 17.4221ZM23.745 19.9381C22.9984 19.9381 22.2685 20.1595 21.6477 20.5743C21.027 20.9891 20.5431 21.5787 20.2574 22.2685C19.9717 22.9583 19.8969 23.7173 20.0426 24.4496C20.1882 25.1819 20.5478 25.8545 21.0757 26.3825C21.6036 26.9104 22.2763 27.2699 23.0086 27.4156C23.7408 27.5612 24.4999 27.4865 25.1897 27.2008C25.8794 26.915 26.469 26.4312 26.8838 25.8104C27.2986 25.1896 27.52 24.4597 27.52 23.7131C27.52 22.7119 27.1223 21.7517 26.4144 21.0438C25.7064 20.3358 24.7462 19.9381 23.745 19.9381Z" fill="#1271D8"/>
<path d="M30.736 12.5092H16.356L23.546 0.0012207L30.736 12.5092ZM20.686 10.0092H26.407L23.547 5.03322L20.686 10.0092Z" fill="#00D478"/>
</svg>
